<svg xmlns="http://www.w3.org/2000/svg" version="1.1" x="0" y="0" viewBox="0 0 321.8 485" preserveAspectRatio="xMidYMid meet">
  <path id="sea" fill="#0091b2" d="M4 324c-2.2 0-4.1 1.8-4 4.1C2.2 415.1 73.4 485 160.9 485s158.7-69.8 160.9-156.8c0.1-2.2-1.8-4.1-4-4.1H4z"/>
  <path id="earth" fill="#77bc1f" d="M321.8 123.3v157.1c0 2.2-1.8 3.9-3.9 3.9H3.9c-2.2 0-3.9-1.8-3.9-3.9V123.3c0-3.6 4.4-5.3 6.8-2.7L158 230.6c1.6 1.6 4.2 1.6 5.7 0L315 120.5C317.5 117.9 321.8 119.7 321.8 123.3z"/>
  <circle id="sun" fill="#ffdb00" cx="161.1" cy="80.2" r="80.2"/>
</svg>