<svg xmlns="http://www.w3.org/2000/svg" version="1.1" x="0px" y="0px" viewBox="0 0 187.3 177.9" preserveAspectRatio="xMidYMid meet">
  <path id="gm-logo__square__icon" fill="#77bc1f" d="M187.3 1.2V47c0 0.6-0.2 1.1-0.9 1.1H3.1c-0.6 0-0.8-0.4-0.8-1.1V1.2c0-1 1.1-1.6 1.8-0.8l44 32.1c0.4 0.5 1.2 0.5 1.6 0L93.9 0.4c0.1-0.1 0.3-0.2 0.4-0.3 0.1 0 0.1-0.1 0.2-0.1 0.1 0 0.3 0 0.4 0 0.1 0 0.1 0 0.2 0.1 0.2 0 0.3 0.1 0.4 0.3l44.1 32.1c0.4 0.5 1.2 0.5 1.7 0l44-32.1C186.1-0.4 187.3 0.1 187.3 1.2z"/>
  <g id="gm-logo__swaure__type" fill="#212620">
    <path d="M89.5 62.8v89.5c0 13.1-6.5 25.6-26.7 25.6H26.5v-20h30.4c4.2 0 8.9-1.1 8.9-7.5v-16c-4 6.7-14 12.5-25.8 12.5 -22.5 0-40-17.1-40-43.1 0-26.2 17.3-43.3 39.8-43.3 12.5 0 22.2 5.8 26.4 12.9 0-0.9-0.4-2.5-0.4-6.9v-3.8H89.5zM45.3 126.6c12.5 0 21.1-9.3 21.1-22.7 0-13.6-8.5-22.9-21.1-22.9 -12.4 0-20.9 9.3-20.9 22.9C24.4 117.3 32.9 126.6 45.3 126.6z"/>
    <path d="M187 146h-19.9v-41.4l-21.6 20.7 -21.6-20.7V146h-19.9V60.6l41.5 40.4L187 60.6V146z"/>
  </g>
</svg>
