<svg xmlns="http://www.w3.org/2000/svg" version="1.1" x="0" y="0" viewBox="0 0 881.6 203.8" preserveAspectRatio="xMidYMid meet">
  <path id="gm-logo__wide__icon" fill="#77bc1f" d="M578 1.7v68.2c0 0.9 0.4 1.2-0.5 1.2H304.8c-0.9 0-0.8-0.3-0.8-1.2V1.7c0-1.6 1.4-2.3 2.5-1.2l65.4 47.8c0.7 0.7 1.7 0.7 2.4 0l65.6-47.8c0.2-0.2 0.4-0.4 0.6-0.4 0.1 0 0.2-0.1 0.3-0.1 0.2 0 0.4 0 0.6 0 0.1 0 0.2 0 0.3 0.1 0.2 0.1 0.5 0.2 0.7 0.4l65.6 47.8c0.7 0.7 1.8 0.7 2.5 0l65.1-47.8C576.7-0.6 578 0.2 578 1.7z"/>
  <g id="gm-logo__wide__type" fill="#212620">
    <path d="M87.2 91.5v87.2c0 12.8-6.4 25-26.1 25H25.9v-19.5h29.6c4.1 0 8.7-1.1 8.7-7.3v-15.6c-3.9 6.6-13.7 12.2-25.2 12.2 -22 0-39-16.7-39-42 0-25.5 16.8-42.2 38.8-42.2 12.2 0 21.6 5.7 25.7 12.6 0-0.9-0.4-2.5-0.4-6.7v-3.7H87.2zM44.2 153.8c12.2 0 20.6-9 20.6-22.2 0-13.3-8.3-22.3-20.6-22.3 -12.1 0-20.4 9-20.4 22.3C23.8 144.7 32.1 153.8 44.2 153.8z"/>
    <path d="M149 114.2h-9.8c-11.7 0-17 5.5-17 19.7v38.8H99.2V91.5h22.3v12.9c3.2-8.7 11-14 21.1-14 2.1 0 4.3 0.2 6.4 0.7V114.2z"/>
    <path d="M237.4 138.9h-60.5c1.2 9 8.3 16.3 18.6 16.3 6.7 0 13.1-2.8 16.3-8.3l23.9 2.5c-7.3 17.4-22.5 25.5-40.6 25.5 -24.3 0-42.6-17.9-42.6-42.7s17.9-42.7 42.2-42.7c22.3 0 42.6 14.5 42.6 48.6V138.9zM176.4 123.4h36.4c-1.2-8.2-8.2-14.9-17.9-14.9C185.1 108.5 178.2 114.7 176.4 123.4z"/>
    <path d="M328.9 138.9h-60.5c1.2 9 8.3 16.3 18.6 16.3 6.7 0 13.1-2.8 16.3-8.3l23.9 2.5c-7.3 17.4-22.5 25.5-40.6 25.5 -24.3 0-42.6-17.9-42.6-42.7s17.9-42.7 42.2-42.7c22.3 0 42.6 14.5 42.6 48.6V138.9zM267.9 123.4h36.4c-1.2-8.2-8.2-14.9-17.9-14.9C276.6 108.5 269.7 114.7 267.9 123.4z"/>
    <path d="M384.8 89.4c17.6 0 30.1 11.2 30.1 30.1v53.2h-23.1v-47.3c0-10.3-6.6-14.5-13.8-14.5 -6.7 0-12.8 3.7-17.2 9.2v52.7h-23.1V91.5h22.5v3.2c0 2.8-0.4 6.4-0.4 6.4C366.2 93.5 375.4 89.4 384.8 89.4z"/>
    <path d="M506.2 172.7h-19.4v-40.4l-21.1 20.2 -21.1-20.2v40.4h-19.4V89.4l40.5 39.4 40.5-39.4V172.7z"/>
    <path d="M534.9 123.7H573v17.1h-38.1v13.7h41.3v18.3h-60.7V92.9h60.7v18.3h-41.3V123.7z"/>
    <path d="M665.9 172.7h-19.4v-40.4l-21.1 20.2 -21.1-20.2v40.4h-19.4V89.4l40.5 39.4 40.5-39.4V172.7z"/>
    <path d="M711 92.9c16.4 0 26.6 7.4 26.6 20.3 0 9.5-4.2 15.4-12.8 17.8 10 1.7 17.3 7.3 17.3 19.2 0 15.2-10.6 22.6-28.1 22.6h-37.5V92.9H711zM699.1 123.7c8.7 0 19.1 0.7 19.1-7.3 0-6.4-7.8-6.8-16.7-6.8h-5.6v14.1H699.1zM704 156.2c9.5 0 18.4 0.2 18.4-7.8 0-9.9-12-8.8-21.9-8.8h-4.6v16.5H704z"/>
    <path d="M767.8 123.7h38.1v17.1h-38.1v13.7h41.3v18.3h-60.7V92.9h60.7v18.3h-41.3V123.7z"/>
    <path d="M837.7 150.5v22.3h-19.4V92.9h28.5c20.5 0 32.5 11 32.5 29.1 0 12.1-5.3 19.9-12.9 24.3l15.2 26.5h-21.2l-12.7-22.3H837.7zM844.4 134.5c7.2 0 15.5 0.6 15.5-12.6 0-12.8-10.2-13.1-15.5-13.1h-6.7v25.7H844.4z"/>
  </g>
</svg>