<svg xmlns="http://www.w3.org/2000/svg" version="1.1">
  <symbol id="gm-logo__block--color" x="0" y="0" viewBox="0 0 415 225.8" preserveAspectRatio="xMidYMid meet">
    <title>Green Member logo, blockup, full color</title>
    <desc>The Green Member block logo in full color. Text is black, so adjust the fill of #gm-logo__block--color__type when placed on dark or incompatible backgrounds.</desc>
    <path id="gm-logo__block--color__icon" fill="#77bc1f" d="M361.5 1.9v73.8c0 1 0.5 2.1-0.5 2.1H65.7c-1 0-1.2-1.1-1.2-2.1V1.9c0-1.7 1.7-2.5 2.9-1.3l70.9 51.7c0.7 0.8 1.9 0.8 2.6 0L212 0.6c0.2-0.2 0.4-0.4 0.7-0.5 0.1-0.1 0.2-0.1 0.3-0.1 0.2 0 0.4-0.1 0.6 0 0.1 0 0.2 0.1 0.3 0.1 0.3 0.1 0.5 0.2 0.7 0.5l71.1 51.7c0.7 0.8 2 0.8 2.7 0L359 0.6C360.1-0.6 361.5 0.2 361.5 1.9z"/>
    <g id="gm-logo__block--color__type" fill="#212620">
      <path d="M87.2 96.7V184c0 12.8-6.4 25-26.1 25H25.9v-19.5h29.6c4.1 0 8.7-1.1 8.7-7.3v-15.6c-3.9 6.6-13.7 12.2-25.2 12.2 -22 0-39-16.7-39-42 0-25.5 16.8-42.2 38.8-42.2 12.2 0 21.6 5.7 25.7 12.6 0-0.9-0.4-2.5-0.4-6.7v-3.7H87.2zM44.2 159c12.2 0 20.6-9 20.6-22.2 0-13.3-8.3-22.3-20.6-22.3 -12.1 0-20.4 9-20.4 22.3C23.8 149.9 32.1 159 44.2 159z"/>
      <path d="M149 119.4h-9.8c-11.7 0-17 5.5-17 19.7v38.8H99.2V96.7h22.3v12.9c3.2-8.7 11-14 21.1-14 2.1 0 4.3 0.2 6.4 0.7V119.4z"/>
      <path d="M237.4 144.1h-60.5c1.2 9 8.3 16.3 18.6 16.3 6.7 0 13.1-2.8 16.3-8.3l23.9 2.5c-7.3 17.4-22.5 25.5-40.6 25.5 -24.3 0-42.6-17.9-42.6-42.7s17.9-42.7 42.2-42.7c22.3 0 42.6 14.5 42.6 48.6V144.1zM176.4 128.6h36.4c-1.2-8.2-8.2-14.9-17.9-14.9C185.1 113.8 178.2 120 176.4 128.6z"/>
      <path d="M328.9 144.1h-60.5c1.2 9 8.3 16.3 18.6 16.3 6.7 0 13.1-2.8 16.3-8.3l23.9 2.5c-7.3 17.4-22.5 25.5-40.6 25.5 -24.3 0-42.6-17.9-42.6-42.7s17.9-42.7 42.2-42.7c22.3 0 42.6 14.5 42.6 48.6V144.1zM267.9 128.6h36.4c-1.2-8.2-8.2-14.9-17.9-14.9C276.6 113.8 269.7 120 267.9 128.6z"/>
      <path d="M384.8 94.6c17.6 0 30.1 11.2 30.1 30.1v53.2h-23.1v-47.3c0-10.3-6.6-14.5-13.8-14.5 -6.7 0-12.8 3.7-17.2 9.2v52.7h-23.1V96.7h22.5v3.2c0 2.8-0.4 6.4-0.4 6.4C366.2 98.7 375.4 94.6 384.8 94.6z"/>
      <path d="M135.1 225.8h-8.6v-17.9l-9.4 8.9 -9.4-8.9v17.9h-8.6v-37l18 17.5 18-17.5V225.8z"/>
      <path d="M160.1 204H177v7.6h-16.9v6.1h18.3v8.1h-26.9v-35.5h26.9v8.1h-18.3V204z"/>
      <path d="M229.9 225.8h-8.6v-17.9l-9.4 8.9 -9.4-8.9v17.9h-8.6v-37l18 17.5 18-17.5V225.8z"/>
      <path d="M261.5 190.3c7.3 0 11.8 3.3 11.8 9 0 4.2-1.9 6.8-5.7 7.9 4.5 0.8 7.7 3.2 7.7 8.5 0 6.7-4.7 10-12.5 10h-16.7v-35.5H261.5zM256.3 204c3.9 0 8.5 0.3 8.5-3.2 0-2.8-3.4-3-7.4-3h-2.5v6.3H256.3zM258.4 218.4c4.2 0 8.2 0.1 8.2-3.4 0-4.4-5.3-3.9-9.7-3.9h-2v7.3H258.4z"/>
      <path d="M298.5 204h16.9v7.6h-16.9v6.1h18.3v8.1h-26.9v-35.5h26.9v8.1h-18.3V204z"/>
      <path d="M341 215.9v9.9h-8.6v-35.5H345c9.1 0 14.4 4.9 14.4 12.9 0 5.4-2.3 8.8-5.7 10.8l6.8 11.8h-9.4l-5.7-9.9H341zM344 208.8c3.2 0 6.9 0.3 6.9-5.6 0-5.7-4.5-5.8-6.9-5.8h-3v11.4H344z"/>
    </g>
  </symbol>
  <symbol id="gm-logo__block" x="0" y="0" viewBox="0 0 415 225.8" preserveAspectRatio="xMidYMid meet">
    <title>Green Member logo, blockup, one color</title>
    <desc>The Green Member block logo in one color. No fill is applied by default. You can style the two components seprately with #gm-logo__block__icon and #gm-logo__block__type.</desc>
    <path id="gm-logo__block__icon" d="M361.5 1.9v73.8c0 1 0.5 2.1-0.5 2.1H65.7c-1 0-1.2-1.1-1.2-2.1V1.9c0-1.7 1.7-2.5 2.9-1.3l70.9 51.7c0.7 0.8 1.9 0.8 2.6 0L212 0.6c0.2-0.2 0.4-0.4 0.7-0.5 0.1-0.1 0.2-0.1 0.3-0.1 0.2 0 0.4-0.1 0.6 0 0.1 0 0.2 0.1 0.3 0.1 0.3 0.1 0.5 0.2 0.7 0.5l71.1 51.7c0.7 0.8 2 0.8 2.7 0L359 0.6C360.1-0.6 361.5 0.2 361.5 1.9z"/>
    <g id="gm-logo__block__type">
      <path d="M87.2 96.7V184c0 12.8-6.4 25-26.1 25H25.9v-19.5h29.6c4.1 0 8.7-1.1 8.7-7.3v-15.6c-3.9 6.6-13.7 12.2-25.2 12.2 -22 0-39-16.7-39-42 0-25.5 16.8-42.2 38.8-42.2 12.2 0 21.6 5.7 25.7 12.6 0-0.9-0.4-2.5-0.4-6.7v-3.7H87.2zM44.2 159c12.2 0 20.6-9 20.6-22.2 0-13.3-8.3-22.3-20.6-22.3 -12.1 0-20.4 9-20.4 22.3C23.8 149.9 32.1 159 44.2 159z"/>
      <path d="M149 119.4h-9.8c-11.7 0-17 5.5-17 19.7v38.8H99.2V96.7h22.3v12.9c3.2-8.7 11-14 21.1-14 2.1 0 4.3 0.2 6.4 0.7V119.4z"/>
      <path d="M237.4 144.1h-60.5c1.2 9 8.3 16.3 18.6 16.3 6.7 0 13.1-2.8 16.3-8.3l23.9 2.5c-7.3 17.4-22.5 25.5-40.6 25.5 -24.3 0-42.6-17.9-42.6-42.7s17.9-42.7 42.2-42.7c22.3 0 42.6 14.5 42.6 48.6V144.1zM176.4 128.6h36.4c-1.2-8.2-8.2-14.9-17.9-14.9C185.1 113.8 178.2 120 176.4 128.6z"/>
      <path d="M328.9 144.1h-60.5c1.2 9 8.3 16.3 18.6 16.3 6.7 0 13.1-2.8 16.3-8.3l23.9 2.5c-7.3 17.4-22.5 25.5-40.6 25.5 -24.3 0-42.6-17.9-42.6-42.7s17.9-42.7 42.2-42.7c22.3 0 42.6 14.5 42.6 48.6V144.1zM267.9 128.6h36.4c-1.2-8.2-8.2-14.9-17.9-14.9C276.6 113.8 269.7 120 267.9 128.6z"/>
      <path d="M384.8 94.6c17.6 0 30.1 11.2 30.1 30.1v53.2h-23.1v-47.3c0-10.3-6.6-14.5-13.8-14.5 -6.7 0-12.8 3.7-17.2 9.2v52.7h-23.1V96.7h22.5v3.2c0 2.8-0.4 6.4-0.4 6.4C366.2 98.7 375.4 94.6 384.8 94.6z"/>
      <path d="M135.1 225.8h-8.6v-17.9l-9.4 8.9 -9.4-8.9v17.9h-8.6v-37l18 17.5 18-17.5V225.8z"/>
      <path d="M160.1 204H177v7.6h-16.9v6.1h18.3v8.1h-26.9v-35.5h26.9v8.1h-18.3V204z"/>
      <path d="M229.9 225.8h-8.6v-17.9l-9.4 8.9 -9.4-8.9v17.9h-8.6v-37l18 17.5 18-17.5V225.8z"/>
      <path d="M261.5 190.3c7.3 0 11.8 3.3 11.8 9 0 4.2-1.9 6.8-5.7 7.9 4.5 0.8 7.7 3.2 7.7 8.5 0 6.7-4.7 10-12.5 10h-16.7v-35.5H261.5zM256.3 204c3.9 0 8.5 0.3 8.5-3.2 0-2.8-3.4-3-7.4-3h-2.5v6.3H256.3zM258.4 218.4c4.2 0 8.2 0.1 8.2-3.4 0-4.4-5.3-3.9-9.7-3.9h-2v7.3H258.4z"/>
      <path d="M298.5 204h16.9v7.6h-16.9v6.1h18.3v8.1h-26.9v-35.5h26.9v8.1h-18.3V204z"/>
      <path d="M341 215.9v9.9h-8.6v-35.5H345c9.1 0 14.4 4.9 14.4 12.9 0 5.4-2.3 8.8-5.7 10.8l6.8 11.8h-9.4l-5.7-9.9H341zM344 208.8c3.2 0 6.9 0.3 6.9-5.6 0-5.7-4.5-5.8-6.9-5.8h-3v11.4H344z"/>
    </g>
  </symbol>
  <symbol id="gm-logo__wide--color" x="0" y="0" viewBox="0 0 881.6 203.8" preserveAspectRatio="xMidYMid meet">
    <title>Green Member logo, horizontal lockup, full color</title>
    <desc>The Green Member horizontal logo in full color. Text is black, so adjust the fill of #gm-logo__wide--color__type when placed on dark or incompatible backgrounds.</desc>
    <path id="gm-logo__wide--color__icon" fill="#77bc1f" d="M578 1.7v68.2c0 0.9 0.4 1.2-0.5 1.2H304.8c-0.9 0-0.8-0.3-0.8-1.2V1.7c0-1.6 1.4-2.3 2.5-1.2l65.4 47.8c0.7 0.7 1.7 0.7 2.4 0l65.6-47.8c0.2-0.2 0.4-0.4 0.6-0.4 0.1 0 0.2-0.1 0.3-0.1 0.2 0 0.4 0 0.6 0 0.1 0 0.2 0 0.3 0.1 0.2 0.1 0.5 0.2 0.7 0.4l65.6 47.8c0.7 0.7 1.8 0.7 2.5 0l65.1-47.8C576.7-0.6 578 0.2 578 1.7z"/>
    <g id="gm-logo__wide--color__type" fill="#212620">
      <path d="M87.2 91.5v87.2c0 12.8-6.4 25-26.1 25H25.9v-19.5h29.6c4.1 0 8.7-1.1 8.7-7.3v-15.6c-3.9 6.6-13.7 12.2-25.2 12.2 -22 0-39-16.7-39-42 0-25.5 16.8-42.2 38.8-42.2 12.2 0 21.6 5.7 25.7 12.6 0-0.9-0.4-2.5-0.4-6.7v-3.7H87.2zM44.2 153.8c12.2 0 20.6-9 20.6-22.2 0-13.3-8.3-22.3-20.6-22.3 -12.1 0-20.4 9-20.4 22.3C23.8 144.7 32.1 153.8 44.2 153.8z"/>
      <path d="M149 114.2h-9.8c-11.7 0-17 5.5-17 19.7v38.8H99.2V91.5h22.3v12.9c3.2-8.7 11-14 21.1-14 2.1 0 4.3 0.2 6.4 0.7V114.2z"/>
      <path d="M237.4 138.9h-60.5c1.2 9 8.3 16.3 18.6 16.3 6.7 0 13.1-2.8 16.3-8.3l23.9 2.5c-7.3 17.4-22.5 25.5-40.6 25.5 -24.3 0-42.6-17.9-42.6-42.7s17.9-42.7 42.2-42.7c22.3 0 42.6 14.5 42.6 48.6V138.9zM176.4 123.4h36.4c-1.2-8.2-8.2-14.9-17.9-14.9C185.1 108.5 178.2 114.7 176.4 123.4z"/>
      <path d="M328.9 138.9h-60.5c1.2 9 8.3 16.3 18.6 16.3 6.7 0 13.1-2.8 16.3-8.3l23.9 2.5c-7.3 17.4-22.5 25.5-40.6 25.5 -24.3 0-42.6-17.9-42.6-42.7s17.9-42.7 42.2-42.7c22.3 0 42.6 14.5 42.6 48.6V138.9zM267.9 123.4h36.4c-1.2-8.2-8.2-14.9-17.9-14.9C276.6 108.5 269.7 114.7 267.9 123.4z"/>
      <path d="M384.8 89.4c17.6 0 30.1 11.2 30.1 30.1v53.2h-23.1v-47.3c0-10.3-6.6-14.5-13.8-14.5 -6.7 0-12.8 3.7-17.2 9.2v52.7h-23.1V91.5h22.5v3.2c0 2.8-0.4 6.4-0.4 6.4C366.2 93.5 375.4 89.4 384.8 89.4z"/>
      <path d="M506.2 172.7h-19.4v-40.4l-21.1 20.2 -21.1-20.2v40.4h-19.4V89.4l40.5 39.4 40.5-39.4V172.7z"/>
      <path d="M534.9 123.7H573v17.1h-38.1v13.7h41.3v18.3h-60.7V92.9h60.7v18.3h-41.3V123.7z"/>
      <path d="M665.9 172.7h-19.4v-40.4l-21.1 20.2 -21.1-20.2v40.4h-19.4V89.4l40.5 39.4 40.5-39.4V172.7z"/>
      <path d="M711 92.9c16.4 0 26.6 7.4 26.6 20.3 0 9.5-4.2 15.4-12.8 17.8 10 1.7 17.3 7.3 17.3 19.2 0 15.2-10.6 22.6-28.1 22.6h-37.5V92.9H711zM699.1 123.7c8.7 0 19.1 0.7 19.1-7.3 0-6.4-7.8-6.8-16.7-6.8h-5.6v14.1H699.1zM704 156.2c9.5 0 18.4 0.2 18.4-7.8 0-9.9-12-8.8-21.9-8.8h-4.6v16.5H704z"/>
      <path d="M767.8 123.7h38.1v17.1h-38.1v13.7h41.3v18.3h-60.7V92.9h60.7v18.3h-41.3V123.7z"/>
      <path d="M837.7 150.5v22.3h-19.4V92.9h28.5c20.5 0 32.5 11 32.5 29.1 0 12.1-5.3 19.9-12.9 24.3l15.2 26.5h-21.2l-12.7-22.3H837.7zM844.4 134.5c7.2 0 15.5 0.6 15.5-12.6 0-12.8-10.2-13.1-15.5-13.1h-6.7v25.7H844.4z"/>
    </g>
  </symbol>
  <symbol id="gm-logo__wide" x="0" y="0" viewBox="0 0 881.6 203.8" preserveAspectRatio="xMidYMid meet">
    <title>Green Member logo, horizontal lockup, one color</title>
    <desc>The Green Member horizontal logo in one color. No fill is applied by default. You can style the two components seprately with #gm-logo__wide__icon and #gm-logo__wide__type.</desc>
    <path id="gm-logo__wide__icon" d="M578 1.7v68.2c0 0.9 0.4 1.2-0.5 1.2H304.8c-0.9 0-0.8-0.3-0.8-1.2V1.7c0-1.6 1.4-2.3 2.5-1.2l65.4 47.8c0.7 0.7 1.7 0.7 2.4 0l65.6-47.8c0.2-0.2 0.4-0.4 0.6-0.4 0.1 0 0.2-0.1 0.3-0.1 0.2 0 0.4 0 0.6 0 0.1 0 0.2 0 0.3 0.1 0.2 0.1 0.5 0.2 0.7 0.4l65.6 47.8c0.7 0.7 1.8 0.7 2.5 0l65.1-47.8C576.7-0.6 578 0.2 578 1.7z"/>
    <g id="gm-logo__wide__type">
      <path d="M87.2 91.5v87.2c0 12.8-6.4 25-26.1 25H25.9v-19.5h29.6c4.1 0 8.7-1.1 8.7-7.3v-15.6c-3.9 6.6-13.7 12.2-25.2 12.2 -22 0-39-16.7-39-42 0-25.5 16.8-42.2 38.8-42.2 12.2 0 21.6 5.7 25.7 12.6 0-0.9-0.4-2.5-0.4-6.7v-3.7H87.2zM44.2 153.8c12.2 0 20.6-9 20.6-22.2 0-13.3-8.3-22.3-20.6-22.3 -12.1 0-20.4 9-20.4 22.3C23.8 144.7 32.1 153.8 44.2 153.8z"/>
      <path d="M149 114.2h-9.8c-11.7 0-17 5.5-17 19.7v38.8H99.2V91.5h22.3v12.9c3.2-8.7 11-14 21.1-14 2.1 0 4.3 0.2 6.4 0.7V114.2z"/>
      <path d="M237.4 138.9h-60.5c1.2 9 8.3 16.3 18.6 16.3 6.7 0 13.1-2.8 16.3-8.3l23.9 2.5c-7.3 17.4-22.5 25.5-40.6 25.5 -24.3 0-42.6-17.9-42.6-42.7s17.9-42.7 42.2-42.7c22.3 0 42.6 14.5 42.6 48.6V138.9zM176.4 123.4h36.4c-1.2-8.2-8.2-14.9-17.9-14.9C185.1 108.5 178.2 114.7 176.4 123.4z"/>
      <path d="M328.9 138.9h-60.5c1.2 9 8.3 16.3 18.6 16.3 6.7 0 13.1-2.8 16.3-8.3l23.9 2.5c-7.3 17.4-22.5 25.5-40.6 25.5 -24.3 0-42.6-17.9-42.6-42.7s17.9-42.7 42.2-42.7c22.3 0 42.6 14.5 42.6 48.6V138.9zM267.9 123.4h36.4c-1.2-8.2-8.2-14.9-17.9-14.9C276.6 108.5 269.7 114.7 267.9 123.4z"/>
      <path d="M384.8 89.4c17.6 0 30.1 11.2 30.1 30.1v53.2h-23.1v-47.3c0-10.3-6.6-14.5-13.8-14.5 -6.7 0-12.8 3.7-17.2 9.2v52.7h-23.1V91.5h22.5v3.2c0 2.8-0.4 6.4-0.4 6.4C366.2 93.5 375.4 89.4 384.8 89.4z"/>
      <path d="M506.2 172.7h-19.4v-40.4l-21.1 20.2 -21.1-20.2v40.4h-19.4V89.4l40.5 39.4 40.5-39.4V172.7z"/>
      <path d="M534.9 123.7H573v17.1h-38.1v13.7h41.3v18.3h-60.7V92.9h60.7v18.3h-41.3V123.7z"/>
      <path d="M665.9 172.7h-19.4v-40.4l-21.1 20.2 -21.1-20.2v40.4h-19.4V89.4l40.5 39.4 40.5-39.4V172.7z"/>
      <path d="M711 92.9c16.4 0 26.6 7.4 26.6 20.3 0 9.5-4.2 15.4-12.8 17.8 10 1.7 17.3 7.3 17.3 19.2 0 15.2-10.6 22.6-28.1 22.6h-37.5V92.9H711zM699.1 123.7c8.7 0 19.1 0.7 19.1-7.3 0-6.4-7.8-6.8-16.7-6.8h-5.6v14.1H699.1zM704 156.2c9.5 0 18.4 0.2 18.4-7.8 0-9.9-12-8.8-21.9-8.8h-4.6v16.5H704z"/>
      <path d="M767.8 123.7h38.1v17.1h-38.1v13.7h41.3v18.3h-60.7V92.9h60.7v18.3h-41.3V123.7z"/>
      <path d="M837.7 150.5v22.3h-19.4V92.9h28.5c20.5 0 32.5 11 32.5 29.1 0 12.1-5.3 19.9-12.9 24.3l15.2 26.5h-21.2l-12.7-22.3H837.7zM844.4 134.5c7.2 0 15.5 0.6 15.5-12.6 0-12.8-10.2-13.1-15.5-13.1h-6.7v25.7H844.4z"/>
    </g>
  </symbol>
  <symbol id="gm-logo__square--color" x="0" y="0" viewBox="0 0 187.3 177.9" preserveAspectRatio="xMidYMid meet">
    <title>Green Member logo, square lockup, full color</title>
    <desc>The Green Member square logo in full color. Text is black, so adjust the fill of #gm-logo__square--color__type when placed on dark or incompatible backgrounds.</desc>
    <path id="gm-logo__square--color__icon" fill="#77bc1f" d="M187.3 1.2V47c0 0.6-0.2 1.1-0.9 1.1H3.1c-0.6 0-0.8-0.4-0.8-1.1V1.2c0-1 1.1-1.6 1.8-0.8l44 32.1c0.4 0.5 1.2 0.5 1.6 0L93.9 0.4c0.1-0.1 0.3-0.2 0.4-0.3 0.1 0 0.1-0.1 0.2-0.1 0.1 0 0.3 0 0.4 0 0.1 0 0.1 0 0.2 0.1 0.2 0 0.3 0.1 0.4 0.3l44.1 32.1c0.4 0.5 1.2 0.5 1.7 0l44-32.1C186.1-0.4 187.3 0.1 187.3 1.2z"/>
    <g id="gm-logo__sqaure--color__type" fill="#212620">
      <path d="M89.5 62.8v89.5c0 13.1-6.5 25.6-26.7 25.6H26.5v-20h30.4c4.2 0 8.9-1.1 8.9-7.5v-16c-4 6.7-14 12.5-25.8 12.5 -22.5 0-40-17.1-40-43.1 0-26.2 17.3-43.3 39.8-43.3 12.5 0 22.2 5.8 26.4 12.9 0-0.9-0.4-2.5-0.4-6.9v-3.8H89.5zM45.3 126.6c12.5 0 21.1-9.3 21.1-22.7 0-13.6-8.5-22.9-21.1-22.9 -12.4 0-20.9 9.3-20.9 22.9C24.4 117.3 32.9 126.6 45.3 126.6z"/>
      <path d="M187 146h-19.9v-41.4l-21.6 20.7 -21.6-20.7V146h-19.9V60.6l41.5 40.4L187 60.6V146z"/>
    </g>
  </symbol>
  <symbol id="gm-logo__square" x="0" y="0" viewBox="0 0 187.3 177.9" preserveAspectRatio="xMidYMid meet">
    <title>Green Member logo, square lockup, onecolor</title>
    <desc>The Green Member square logo in one color. No fill is applied by default. You can style the two components seprately with #gm-logo__square__icon and #gm-logo__square__type.</desc>
    <path id="gm-logo__square__icon" d="M187.3 1.2V47c0 0.6-0.2 1.1-0.9 1.1H3.1c-0.6 0-0.8-0.4-0.8-1.1V1.2c0-1 1.1-1.6 1.8-0.8l44 32.1c0.4 0.5 1.2 0.5 1.6 0L93.9 0.4c0.1-0.1 0.3-0.2 0.4-0.3 0.1 0 0.1-0.1 0.2-0.1 0.1 0 0.3 0 0.4 0 0.1 0 0.1 0 0.2 0.1 0.2 0 0.3 0.1 0.4 0.3l44.1 32.1c0.4 0.5 1.2 0.5 1.7 0l44-32.1C186.1-0.4 187.3 0.1 187.3 1.2z"/>
    <g id="gm-logo__sqaure__type">
      <path d="M89.5 62.8v89.5c0 13.1-6.5 25.6-26.7 25.6H26.5v-20h30.4c4.2 0 8.9-1.1 8.9-7.5v-16c-4 6.7-14 12.5-25.8 12.5 -22.5 0-40-17.1-40-43.1 0-26.2 17.3-43.3 39.8-43.3 12.5 0 22.2 5.8 26.4 12.9 0-0.9-0.4-2.5-0.4-6.9v-3.8H89.5zM45.3 126.6c12.5 0 21.1-9.3 21.1-22.7 0-13.6-8.5-22.9-21.1-22.9 -12.4 0-20.9 9.3-20.9 22.9C24.4 117.3 32.9 126.6 45.3 126.6z"/>
      <path d="M187 146h-19.9v-41.4l-21.6 20.7 -21.6-20.7V146h-19.9V60.6l41.5 40.4L187 60.6V146z"/>
    </g>
  </symbol>
  <symbol id="gm-logo__icon" x="0" y="0" viewBox="0 0 253 66" preserveAspectRatio="xMidYMid meet" fill="#77bc1f">
    <title>Green Member logo icon</title>
    <desc>The Green Member logo icon. Default fill is green. Because the icon is one shape, you only need to adjust the fill for the entire symbol if it needs to change. However, this should only be done when the icon is on a green background, and should be rendered in white in that case.</desc>
    <path d="M253 1.6v62.9c0 0.9 0 1.5-0.8 1.5H0.7C-0.2 66 0 65.4 0 64.5V1.6c0-1.4 1.3-2.1 2.3-1.1l60.3 44.1c0.6 0.7 1.5 0.7 2.2 0l60.6-44.1c0.2-0.2 0.4-0.3 0.6-0.4 0.1 0 0.2-0.1 0.3-0.1 0.2 0 0.4 0 0.5 0 0.1 0 0.2 0 0.3 0.1 0.2 0.1 0.4 0.2 0.6 0.4l60.5 44.1c0.6 0.7 1.7 0.7 2.3 0l60.2-44.1C251.7-0.5 253 0.2 253 1.6z"/>
  </symbol>
</svg>
