<svg xmlns="http://www.w3.org/2000/svg" version="1.1" x="0" y="0" viewBox="0 0 415 225.8" preserveAspectRatio="xMidYMid meet">
  <path id="icon" fill="#77bc1f" d="M361.5 1.9v73.8c0 1 0.5 2.1-0.5 2.1H65.7c-1 0-1.2-1.1-1.2-2.1V1.9c0-1.7 1.7-2.5 2.9-1.3l70.9 51.7c0.7 0.8 1.9 0.8 2.6 0L212 0.6c0.2-0.2 0.4-0.4 0.7-0.5 0.1-0.1 0.2-0.1 0.3-0.1 0.2 0 0.4-0.1 0.6 0 0.1 0 0.2 0.1 0.3 0.1 0.3 0.1 0.5 0.2 0.7 0.5l71.1 51.7c0.7 0.8 2 0.8 2.7 0L359 0.6C360.1-0.6 361.5 0.2 361.5 1.9z"/>
  <g id="text" fill="#212620">
    <path d="M87.2 96.7V184c0 12.8-6.4 25-26.1 25H25.9v-19.5h29.6c4.1 0 8.7-1.1 8.7-7.3v-15.6c-3.9 6.6-13.7 12.2-25.2 12.2 -22 0-39-16.7-39-42 0-25.5 16.8-42.2 38.8-42.2 12.2 0 21.6 5.7 25.7 12.6 0-0.9-0.4-2.5-0.4-6.7v-3.7H87.2zM44.2 159c12.2 0 20.6-9 20.6-22.2 0-13.3-8.3-22.3-20.6-22.3 -12.1 0-20.4 9-20.4 22.3C23.8 149.9 32.1 159 44.2 159z"/>
    <path d="M149 119.4h-9.8c-11.7 0-17 5.5-17 19.7v38.8H99.2V96.7h22.3v12.9c3.2-8.7 11-14 21.1-14 2.1 0 4.3 0.2 6.4 0.7V119.4z"/>
    <path d="M237.4 144.1h-60.5c1.2 9 8.3 16.3 18.6 16.3 6.7 0 13.1-2.8 16.3-8.3l23.9 2.5c-7.3 17.4-22.5 25.5-40.6 25.5 -24.3 0-42.6-17.9-42.6-42.7s17.9-42.7 42.2-42.7c22.3 0 42.6 14.5 42.6 48.6V144.1zM176.4 128.6h36.4c-1.2-8.2-8.2-14.9-17.9-14.9C185.1 113.8 178.2 120 176.4 128.6z"/>
    <path d="M328.9 144.1h-60.5c1.2 9 8.3 16.3 18.6 16.3 6.7 0 13.1-2.8 16.3-8.3l23.9 2.5c-7.3 17.4-22.5 25.5-40.6 25.5 -24.3 0-42.6-17.9-42.6-42.7s17.9-42.7 42.2-42.7c22.3 0 42.6 14.5 42.6 48.6V144.1zM267.9 128.6h36.4c-1.2-8.2-8.2-14.9-17.9-14.9C276.6 113.8 269.7 120 267.9 128.6z"/>
    <path d="M384.8 94.6c17.6 0 30.1 11.2 30.1 30.1v53.2h-23.1v-47.3c0-10.3-6.6-14.5-13.8-14.5 -6.7 0-12.8 3.7-17.2 9.2v52.7h-23.1V96.7h22.5v3.2c0 2.8-0.4 6.4-0.4 6.4C366.2 98.7 375.4 94.6 384.8 94.6z"/>
    <path d="M135.1 225.8h-8.6v-17.9l-9.4 8.9 -9.4-8.9v17.9h-8.6v-37l18 17.5 18-17.5V225.8z"/>
    <path d="M160.1 204H177v7.6h-16.9v6.1h18.3v8.1h-26.9v-35.5h26.9v8.1h-18.3V204z"/>
    <path d="M229.9 225.8h-8.6v-17.9l-9.4 8.9 -9.4-8.9v17.9h-8.6v-37l18 17.5 18-17.5V225.8z"/>
    <path d="M261.5 190.3c7.3 0 11.8 3.3 11.8 9 0 4.2-1.9 6.8-5.7 7.9 4.5 0.8 7.7 3.2 7.7 8.5 0 6.7-4.7 10-12.5 10h-16.7v-35.5H261.5zM256.3 204c3.9 0 8.5 0.3 8.5-3.2 0-2.8-3.4-3-7.4-3h-2.5v6.3H256.3zM258.4 218.4c4.2 0 8.2 0.1 8.2-3.4 0-4.4-5.3-3.9-9.7-3.9h-2v7.3H258.4z"/>
    <path d="M298.5 204h16.9v7.6h-16.9v6.1h18.3v8.1h-26.9v-35.5h26.9v8.1h-18.3V204z"/>
    <path d="M341 215.9v9.9h-8.6v-35.5H345c9.1 0 14.4 4.9 14.4 12.9 0 5.4-2.3 8.8-5.7 10.8l6.8 11.8h-9.4l-5.7-9.9H341zM344 208.8c3.2 0 6.9 0.3 6.9-5.6 0-5.7-4.5-5.8-6.9-5.8h-3v11.4H344z"/>
  </g>
</svg>