<svg xmlns="http://www.w3.org/2000/svg" version="1.1">
	<symbol id="logo__wide--color" x="0" y="0" viewBox="0 0 2000 500" preserveAspectRatio="xMidYMid meet">
		<title>Sea of Green logo, horizontal lockup, full color</title>
		<desc>Sea of Green's horizontal logo in full color. Text is blue, so adjust the fill of #logo__wide--color__type when placed on dark or incompatible backgrounds.</desc>
		<g id="logo__wide--color__icon">
			<path id="logo__wide--color__icon__sea" fill="#0091b2" d="M37.2 272.7c-1.1 0-2.1 0.9-2.1 2.1 1.1 44.3 37.3 79.8 81.8 79.8s80.7-35.5 81.8-79.8c0-1.1-0.9-2.1-2.1-2.1H37.2z"/>
			<path id="logo__wide--color__icon__earth" fill="#77bc1f" d="M198.9 170.6v79.9c0 1.1-0.9 2-2 2H37.2c-1.1 0-2-0.9-2-2v-79.9c0-1.8 2.2-2.7 3.5-1.4l76.9 56c0.8 0.8 2.1 0.8 2.9 0l77-56C196.7 167.9 198.9 168.7 198.9 170.6z"/>
			<circle id="logo__wide--color__icon__sun" fill="#ffdb00" cx="117.2" cy="148.7" r="40.8"/>
		</g>
		<g id="logo__wide--color__type" fill="#0091b2">
			<path d="M431.9 233.6c-11.9-11.6-26.8-15.2-36.4-15.2 -11 0-14.8 5.5-14.8 10 0 5.2 3.2 8.7 11 11.3l24.5 7.7c30.3 10 40.6 26.4 40.6 45.8 0 21.6-18.4 46.8-58.7 46.8 -32.6 0-52.9-12.6-65.1-23.2l22.2-29c10.6 10 29.7 18.4 43.5 18.4 10 0 16.1-5.2 16.1-11 0-7.4-4.8-10.6-16.8-14.2l-25.1-7.4c-23.9-7.7-34.2-23.9-34.2-43.2 0-24.2 21.9-45.8 57.4-45.8 19.3 0 42.2 5.8 59.7 21.9L431.9 233.6z"/>
			<path d="M620.2 274.5h-110c2.3 16.4 15.2 29.7 33.9 29.7 12.3 0 23.9-5.2 29.7-15.2l43.5 4.5c-13.2 31.6-40.9 46.4-73.8 46.4 -44.2 0-77.4-32.6-77.4-77.7s32.6-77.7 76.7-77.7c40.6 0 77.4 26.4 77.4 88.3V274.5zM509.3 246.5h66.1c-2.3-14.8-14.8-27.1-32.6-27.1C525.1 219.4 512.5 230.7 509.3 246.5z"/>
			<path d="M725.1 237.7c0-10.6-8.4-17.4-24.5-17.4 -14.8 0-33.5 7.4-44.5 13.9l-16.4-31.6c0 0 27.4-18.1 63.2-18.1 33.5 0 64.2 15.5 64.2 54.5v97.1h-41.9v-13.9c-7.7 11.6-24.5 17.7-41.3 17.7 -31.3 0-51.6-22.2-51.6-46.4 0-28.1 20.6-45.5 53.5-45.5h29c7.1 0 10.3-3.2 10.3-8.7V237.7zM725.1 283.2v-10.6c-2.6 2.6-7.1 3.2-12.9 3.2h-15.8c-13.2 0-21 5.8-21 16.1 0 10 8.1 17.4 21 17.4C711.6 309.3 725.1 301.6 725.1 283.2z"/>
			<path d="M859.2 262.3c0-45.1 35.1-77.7 79-77.7 43.9 0 79 32.6 79 77.7s-35.1 77.7-79 77.7C894.4 340 859.2 307.4 859.2 262.3zM901.2 262.3c0 22.9 15.2 40.3 37.1 40.3 21.6 0 36.8-17.4 36.8-40.3 0-23.2-15.2-40.3-36.8-40.3C916.3 221.9 901.2 239 901.2 262.3z"/>
			<path d="M1045.5 146.5c0-29 19.3-39 41.9-39 11.3 0 30.6 1.9 30.6 1.9v38.4c0 0-12.9-1.6-17.4-1.6 -8.1 0-13.2 1.9-13.2 12.3v30h28.4v35.5h-28.4v112.2h-41.9V223.9h-23.2v-35.5h23.2V146.5z"/>
			<path d="M1368.9 188.4v158.6c0 23.2-11.6 45.5-47.4 45.5h-64.2V357h53.8c7.4 0 15.8-1.9 15.8-13.2v-28.4c-7.1 11.9-24.8 22.2-45.8 22.2 -40 0-70.9-30.3-70.9-76.4 0-46.4 30.6-76.7 70.6-76.7 22.2 0 39.3 10.3 46.8 22.9 0-1.6-0.6-4.5-0.6-12.3v-6.8H1368.9zM1290.6 301.6c22.2 0 37.4-16.4 37.4-40.3 0-24.2-15.2-40.6-37.4-40.6 -21.9 0-37.1 16.4-37.1 40.6C1253.5 285.1 1268.6 301.6 1290.6 301.6z"/>
			<path d="M1481.2 229.7h-17.7c-21.3 0-31 10-31 35.8v70.6h-41.9V188.4h40.6V212c5.8-15.8 20-25.5 38.4-25.5 3.9 0 7.7 0.3 11.6 1.3V229.7z"/>
			<path d="M1641.9 274.5h-110c2.3 16.4 15.2 29.7 33.9 29.7 12.3 0 23.9-5.2 29.7-15.2l43.5 4.5c-13.2 31.6-40.9 46.4-73.8 46.4 -44.2 0-77.4-32.6-77.4-77.7s32.6-77.7 76.7-77.7c40.6 0 77.4 26.4 77.4 88.3V274.5zM1531 246.5h66.1c-2.3-14.8-14.8-27.1-32.6-27.1C1546.8 219.4 1534.2 230.7 1531 246.5z"/>
			<path d="M1808.3 274.5h-110c2.3 16.4 15.2 29.7 33.9 29.7 12.3 0 23.9-5.2 29.7-15.2l43.5 4.5c-13.2 31.6-40.9 46.4-73.8 46.4 -44.2 0-77.4-32.6-77.4-77.7s32.6-77.7 76.7-77.7c40.6 0 77.4 26.4 77.4 88.3V274.5zM1697.4 246.5h66.1c-2.3-14.8-14.8-27.1-32.6-27.1C1713.2 219.4 1700.6 230.7 1697.4 246.5z"/>
			<path d="M1910 184.5c31.9 0 54.8 20.3 54.8 54.8v96.7h-41.9V250c0-18.7-11.9-26.4-25.2-26.4 -12.3 0-23.2 6.8-31.3 16.8v95.8h-41.9V188.4h40.9v5.8c0 5.2-0.6 11.6-0.6 11.6C1876.1 192 1892.9 184.5 1910 184.5z"/>
		</g>
	</symbol>
		<symbol id="logo__wide" x="0" y="0" viewBox="0 0 2000 500" preserveAspectRatio="xMidYMid meet">
		<title>Sea of Green logo, horizontal lockup, one color</title>
		<desc>Sea of Green's horizontal logo in one color. No fill is applied by default. You can style the two components seprately with #logo__wide__icon and #logo__wide__type.</desc>
		<g id="logo__wide__icon">
			<path d="M37.2 272.7c-1.1 0-2.1 0.9-2.1 2.1 1.1 44.3 37.3 79.8 81.8 79.8s80.7-35.5 81.8-79.8c0-1.1-0.9-2.1-2.1-2.1H37.2z"/>
			<path d="M198.9 170.6v79.9c0 1.1-0.9 2-2 2H37.2c-1.1 0-2-0.9-2-2v-79.9c0-1.8 2.2-2.7 3.5-1.4l76.9 56c0.8 0.8 2.1 0.8 2.9 0l77-56C196.7 167.9 198.9 168.7 198.9 170.6z"/>
			<circle cx="117.2" cy="148.7" r="40.8"/>
		</g>
		<g id="logo__wide__type">
			<path d="M431.9 233.6c-11.9-11.6-26.8-15.2-36.4-15.2 -11 0-14.8 5.5-14.8 10 0 5.2 3.2 8.7 11 11.3l24.5 7.7c30.3 10 40.6 26.4 40.6 45.8 0 21.6-18.4 46.8-58.7 46.8 -32.6 0-52.9-12.6-65.1-23.2l22.2-29c10.6 10 29.7 18.4 43.5 18.4 10 0 16.1-5.2 16.1-11 0-7.4-4.8-10.6-16.8-14.2l-25.1-7.4c-23.9-7.7-34.2-23.9-34.2-43.2 0-24.2 21.9-45.8 57.4-45.8 19.3 0 42.2 5.8 59.7 21.9L431.9 233.6z"/>
			<path d="M620.2 274.5h-110c2.3 16.4 15.2 29.7 33.9 29.7 12.3 0 23.9-5.2 29.7-15.2l43.5 4.5c-13.2 31.6-40.9 46.4-73.8 46.4 -44.2 0-77.4-32.6-77.4-77.7s32.6-77.7 76.7-77.7c40.6 0 77.4 26.4 77.4 88.3V274.5zM509.3 246.5h66.1c-2.3-14.8-14.8-27.1-32.6-27.1C525.1 219.4 512.5 230.7 509.3 246.5z"/>
			<path d="M725.1 237.7c0-10.6-8.4-17.4-24.5-17.4 -14.8 0-33.5 7.4-44.5 13.9l-16.4-31.6c0 0 27.4-18.1 63.2-18.1 33.5 0 64.2 15.5 64.2 54.5v97.1h-41.9v-13.9c-7.7 11.6-24.5 17.7-41.3 17.7 -31.3 0-51.6-22.2-51.6-46.4 0-28.1 20.6-45.5 53.5-45.5h29c7.1 0 10.3-3.2 10.3-8.7V237.7zM725.1 283.2v-10.6c-2.6 2.6-7.1 3.2-12.9 3.2h-15.8c-13.2 0-21 5.8-21 16.1 0 10 8.1 17.4 21 17.4C711.6 309.3 725.1 301.6 725.1 283.2z"/>
			<path d="M859.2 262.3c0-45.1 35.1-77.7 79-77.7 43.9 0 79 32.6 79 77.7s-35.1 77.7-79 77.7C894.4 340 859.2 307.4 859.2 262.3zM901.2 262.3c0 22.9 15.2 40.3 37.1 40.3 21.6 0 36.8-17.4 36.8-40.3 0-23.2-15.2-40.3-36.8-40.3C916.3 221.9 901.2 239 901.2 262.3z"/>
			<path d="M1045.5 146.5c0-29 19.3-39 41.9-39 11.3 0 30.6 1.9 30.6 1.9v38.4c0 0-12.9-1.6-17.4-1.6 -8.1 0-13.2 1.9-13.2 12.3v30h28.4v35.5h-28.4v112.2h-41.9V223.9h-23.2v-35.5h23.2V146.5z"/>
			<path d="M1368.9 188.4v158.6c0 23.2-11.6 45.5-47.4 45.5h-64.2V357h53.8c7.4 0 15.8-1.9 15.8-13.2v-28.4c-7.1 11.9-24.8 22.2-45.8 22.2 -40 0-70.9-30.3-70.9-76.4 0-46.4 30.6-76.7 70.6-76.7 22.2 0 39.3 10.3 46.8 22.9 0-1.6-0.6-4.5-0.6-12.3v-6.8H1368.9zM1290.6 301.6c22.2 0 37.4-16.4 37.4-40.3 0-24.2-15.2-40.6-37.4-40.6 -21.9 0-37.1 16.4-37.1 40.6C1253.5 285.1 1268.6 301.6 1290.6 301.6z"/>
			<path d="M1481.2 229.7h-17.7c-21.3 0-31 10-31 35.8v70.6h-41.9V188.4h40.6V212c5.8-15.8 20-25.5 38.4-25.5 3.9 0 7.7 0.3 11.6 1.3V229.7z"/>
			<path d="M1641.9 274.5h-110c2.3 16.4 15.2 29.7 33.9 29.7 12.3 0 23.9-5.2 29.7-15.2l43.5 4.5c-13.2 31.6-40.9 46.4-73.8 46.4 -44.2 0-77.4-32.6-77.4-77.7s32.6-77.7 76.7-77.7c40.6 0 77.4 26.4 77.4 88.3V274.5zM1531 246.5h66.1c-2.3-14.8-14.8-27.1-32.6-27.1C1546.8 219.4 1534.2 230.7 1531 246.5z"/>
			<path d="M1808.3 274.5h-110c2.3 16.4 15.2 29.7 33.9 29.7 12.3 0 23.9-5.2 29.7-15.2l43.5 4.5c-13.2 31.6-40.9 46.4-73.8 46.4 -44.2 0-77.4-32.6-77.4-77.7s32.6-77.7 76.7-77.7c40.6 0 77.4 26.4 77.4 88.3V274.5zM1697.4 246.5h66.1c-2.3-14.8-14.8-27.1-32.6-27.1C1713.2 219.4 1700.6 230.7 1697.4 246.5z"/>
			<path d="M1910 184.5c31.9 0 54.8 20.3 54.8 54.8v96.7h-41.9V250c0-18.7-11.9-26.4-25.2-26.4 -12.3 0-23.2 6.8-31.3 16.8v95.8h-41.9V188.4h40.9v5.8c0 5.2-0.6 11.6-0.6 11.6C1876.1 192 1892.9 184.5 1910 184.5z"/>
		</g>
	</symbol>
	<symbol id="logo__block--color" x="0" y="0" viewBox="0 0 998 500" preserveAspectRatio="xMidYMid meet">
		<title>Sea of Green logo, blockup, full color</title>
		<desc>Sea of Green's block logo in full color. Text is blue, so adjust the fill of #logo__block--color__type when placed on dark or incompatible backgrounds.</desc>
		<g id="logo__block--color__icon">
			<path id="logo__block--color__icon__sea" fill="#0091b2" d="M2.9 239.7c-1.6 0-3 1.3-2.9 3 1.6 63.2 53.3 113.9 116.8 113.9S232 305.8 233.6 242.7c0-1.6-1.3-3-2.9-3H2.9z"/>
			<path id="logo__block--color__icon__earth" fill="#77bc1f" d="M233.7 93.9v114c0 1.6-1.3 2.9-2.9 2.9H2.9c-1.6 0-2.9-1.3-2.9-2.9v-114c0-2.6 3.2-3.9 4.9-2l109.8 79.9c1.1 1.2 3 1.2 4.2 0l109.9-79.9C230.5 90 233.7 91.3 233.7 93.9z"/>
			<circle id="logo__block--color__icon__sun" fill="#ffdb00" cx="117" cy="62.6" r="58.2"/>
		</g>
		<g id="logo__block--color__type" fill="#0091b2">
			<path d="M404.9 91c-8.6-8.4-19.3-10.9-26.3-10.9 -7.9 0-10.7 4-10.7 7.2 0 3.7 2.3 6.3 7.9 8.1l17.7 5.6c21.9 7.2 29.3 19.1 29.3 33.1 0 15.6-13.3 33.8-42.4 33.8 -23.5 0-38.2-9.1-47-16.8l16.1-21c7.7 7.2 21.4 13.3 31.4 13.3 7.2 0 11.6-3.7 11.6-7.9 0-5.4-3.5-7.7-12.1-10.2l-18.2-5.4c-17.2-5.6-24.7-17.2-24.7-31.2 0-17.5 15.8-33.1 41.4-33.1 14 0 30.5 4.2 43.1 15.8L404.9 91z"/>
			<path d="M540.9 120.6h-79.4c1.6 11.9 10.9 21.4 24.4 21.4 8.8 0 17.2-3.7 21.4-10.9l31.4 3.3c-9.5 22.8-29.6 33.5-53.3 33.5 -31.9 0-55.9-23.5-55.9-56.1s23.5-56.1 55.4-56.1c29.3 0 55.9 19.1 55.9 63.8V120.6zM460.8 100.3h47.7c-1.6-10.7-10.7-19.6-23.5-19.6C472.2 80.8 463.2 88.9 460.8 100.3z"/>
			<path d="M616.6 94c0-7.7-6.1-12.6-17.7-12.6 -10.7 0-24.2 5.4-32.1 10l-11.9-22.8c0 0 19.8-13 45.6-13 24.2 0 46.3 11.2 46.3 39.3V165h-30.3v-10c-5.6 8.4-17.7 12.8-29.8 12.8 -22.6 0-37.2-16.1-37.2-33.5 0-20.3 14.9-32.8 38.6-32.8h21c5.1 0 7.4-2.3 7.4-6.3V94zM616.6 126.9v-7.7c-1.9 1.9-5.1 2.3-9.3 2.3h-11.4c-9.5 0-15.1 4.2-15.1 11.6 0 7.2 5.8 12.6 15.1 12.6C606.8 145.7 616.6 140.1 616.6 126.9z"/>
			<path d="M713.5 111.7c0-32.6 25.4-56.1 57-56.1 31.7 0 57 23.5 57 56.1s-25.4 56.1-57 56.1C738.8 167.8 713.5 144.3 713.5 111.7zM743.7 111.7c0 16.5 10.9 29.1 26.8 29.1 15.6 0 26.5-12.6 26.5-29.1 0-16.8-10.9-29.1-26.5-29.1C754.7 82.6 743.7 95 743.7 111.7z"/>
			<path d="M847.9 28.2c0-21 14-28.2 30.3-28.2 8.1 0 22.1 1.4 22.1 1.4v27.7c0 0-9.3-1.2-12.6-1.2 -5.8 0-9.5 1.4-9.5 8.8v21.7h20.5V84h-20.5v81h-30.3V84h-16.8V58.4h16.8V28.2z"/>
			<path d="M448.2 234.4V349c0 16.8-8.4 32.8-34.2 32.8h-46.3v-25.6h38.9c5.4 0 11.4-1.4 11.4-9.5v-20.5c-5.1 8.6-17.9 16.1-33.1 16.1 -28.9 0-51.2-21.9-51.2-55.2 0-33.5 22.1-55.4 51-55.4 16.1 0 28.4 7.4 33.8 16.5 0-1.2-0.5-3.3-0.5-8.8v-4.9H448.2zM391.6 316.1c16.1 0 27-11.9 27-29.1 0-17.5-10.9-29.3-27-29.3 -15.8 0-26.8 11.9-26.8 29.3C364.9 304.3 375.8 316.1 391.6 316.1z"/>
			<path d="M529.3 264.2h-12.8c-15.4 0-22.3 7.2-22.3 25.8v51h-30.3V234.4h29.3v17c4.2-11.4 14.4-18.4 27.7-18.4 2.8 0 5.6 0.2 8.4 0.9V264.2z"/>
			<path d="M645.3 296.6h-79.4c1.6 11.9 10.9 21.4 24.4 21.4 8.8 0 17.2-3.7 21.4-10.9l31.4 3.3c-9.5 22.8-29.6 33.5-53.3 33.5 -31.9 0-55.9-23.5-55.9-56.1s23.5-56.1 55.4-56.1c29.3 0 55.9 19.1 55.9 63.8V296.6zM565.2 276.3H613c-1.6-10.7-10.7-19.6-23.5-19.6C576.6 256.8 567.6 264.9 565.2 276.3z"/>
			<path d="M765.4 296.6H686c1.6 11.9 10.9 21.4 24.4 21.4 8.8 0 17.2-3.7 21.4-10.9l31.4 3.3c-9.5 22.8-29.6 33.5-53.3 33.5 -31.9 0-55.9-23.5-55.9-56.1s23.5-56.1 55.4-56.1c29.3 0 55.9 19.1 55.9 63.8V296.6zM685.3 276.3h47.7c-1.6-10.7-10.7-19.6-23.5-19.6C696.8 256.8 687.7 264.9 685.3 276.3z"/>
			<path d="M838.9 231.6c23 0 39.6 14.7 39.6 39.6V341h-30.3v-62.2c0-13.5-8.6-19.1-18.2-19.1 -8.8 0-16.8 4.9-22.6 12.1V341h-30.3V234.4h29.6v4.2c0 3.7-0.5 8.4-0.5 8.4C814.4 237 826.5 231.6 838.9 231.6z"/>
		</g>
	</symbol>
	<symbol id="logo__block" x="0" y="0" viewBox="0 0 998 500" preserveAspectRatio="xMidYMid meet">
		<title>Sea of Green logo, blockup, one color</title>
		<desc>Sea of Green's horizontal logo in one color. No fill is applied by default. You can style the two components seprately with #logo__block__icon and #logo__block__type.</desc>
		<g id="logo__block__icon">
			<path d="M2.9 239.7c-1.6 0-3 1.3-2.9 3 1.6 63.2 53.3 113.9 116.8 113.9S232 305.8 233.6 242.7c0-1.6-1.3-3-2.9-3H2.9z"/>
			<path d="M233.7 93.9v114c0 1.6-1.3 2.9-2.9 2.9H2.9c-1.6 0-2.9-1.3-2.9-2.9v-114c0-2.6 3.2-3.9 4.9-2l109.8 79.9c1.1 1.2 3 1.2 4.2 0l109.9-79.9C230.5 90 233.7 91.3 233.7 93.9z"/>
			<circle cx="117" cy="62.6" r="58.2"/>
		</g>
		<g id="logo__block__type">
			<path d="M404.9 91c-8.6-8.4-19.3-10.9-26.3-10.9 -7.9 0-10.7 4-10.7 7.2 0 3.7 2.3 6.3 7.9 8.1l17.7 5.6c21.9 7.2 29.3 19.1 29.3 33.1 0 15.6-13.3 33.8-42.4 33.8 -23.5 0-38.2-9.1-47-16.8l16.1-21c7.7 7.2 21.4 13.3 31.4 13.3 7.2 0 11.6-3.7 11.6-7.9 0-5.4-3.5-7.7-12.1-10.2l-18.2-5.4c-17.2-5.6-24.7-17.2-24.7-31.2 0-17.5 15.8-33.1 41.4-33.1 14 0 30.5 4.2 43.1 15.8L404.9 91z"/>
			<path d="M540.9 120.6h-79.4c1.6 11.9 10.9 21.4 24.4 21.4 8.8 0 17.2-3.7 21.4-10.9l31.4 3.3c-9.5 22.8-29.6 33.5-53.3 33.5 -31.9 0-55.9-23.5-55.9-56.1s23.5-56.1 55.4-56.1c29.3 0 55.9 19.1 55.9 63.8V120.6zM460.8 100.3h47.7c-1.6-10.7-10.7-19.6-23.5-19.6C472.2 80.8 463.2 88.9 460.8 100.3z"/>
			<path d="M616.6 94c0-7.7-6.1-12.6-17.7-12.6 -10.7 0-24.2 5.4-32.1 10l-11.9-22.8c0 0 19.8-13 45.6-13 24.2 0 46.3 11.2 46.3 39.3V165h-30.3v-10c-5.6 8.4-17.7 12.8-29.8 12.8 -22.6 0-37.2-16.1-37.2-33.5 0-20.3 14.9-32.8 38.6-32.8h21c5.1 0 7.4-2.3 7.4-6.3V94zM616.6 126.9v-7.7c-1.9 1.9-5.1 2.3-9.3 2.3h-11.4c-9.5 0-15.1 4.2-15.1 11.6 0 7.2 5.8 12.6 15.1 12.6C606.8 145.7 616.6 140.1 616.6 126.9z"/>
			<path d="M713.5 111.7c0-32.6 25.4-56.1 57-56.1 31.7 0 57 23.5 57 56.1s-25.4 56.1-57 56.1C738.8 167.8 713.5 144.3 713.5 111.7zM743.7 111.7c0 16.5 10.9 29.1 26.8 29.1 15.6 0 26.5-12.6 26.5-29.1 0-16.8-10.9-29.1-26.5-29.1C754.7 82.6 743.7 95 743.7 111.7z"/>
			<path d="M847.9 28.2c0-21 14-28.2 30.3-28.2 8.1 0 22.1 1.4 22.1 1.4v27.7c0 0-9.3-1.2-12.6-1.2 -5.8 0-9.5 1.4-9.5 8.8v21.7h20.5V84h-20.5v81h-30.3V84h-16.8V58.4h16.8V28.2z"/>
			<path d="M448.2 234.4V349c0 16.8-8.4 32.8-34.2 32.8h-46.3v-25.6h38.9c5.4 0 11.4-1.4 11.4-9.5v-20.5c-5.1 8.6-17.9 16.1-33.1 16.1 -28.9 0-51.2-21.9-51.2-55.2 0-33.5 22.1-55.4 51-55.4 16.1 0 28.4 7.4 33.8 16.5 0-1.2-0.5-3.3-0.5-8.8v-4.9H448.2zM391.6 316.1c16.1 0 27-11.9 27-29.1 0-17.5-10.9-29.3-27-29.3 -15.8 0-26.8 11.9-26.8 29.3C364.9 304.3 375.8 316.1 391.6 316.1z"/>
			<path d="M529.3 264.2h-12.8c-15.4 0-22.3 7.2-22.3 25.8v51h-30.3V234.4h29.3v17c4.2-11.4 14.4-18.4 27.7-18.4 2.8 0 5.6 0.2 8.4 0.9V264.2z"/>
			<path d="M645.3 296.6h-79.4c1.6 11.9 10.9 21.4 24.4 21.4 8.8 0 17.2-3.7 21.4-10.9l31.4 3.3c-9.5 22.8-29.6 33.5-53.3 33.5 -31.9 0-55.9-23.5-55.9-56.1s23.5-56.1 55.4-56.1c29.3 0 55.9 19.1 55.9 63.8V296.6zM565.2 276.3H613c-1.6-10.7-10.7-19.6-23.5-19.6C576.6 256.8 567.6 264.9 565.2 276.3z"/>
			<path d="M765.4 296.6H686c1.6 11.9 10.9 21.4 24.4 21.4 8.8 0 17.2-3.7 21.4-10.9l31.4 3.3c-9.5 22.8-29.6 33.5-53.3 33.5 -31.9 0-55.9-23.5-55.9-56.1s23.5-56.1 55.4-56.1c29.3 0 55.9 19.1 55.9 63.8V296.6zM685.3 276.3h47.7c-1.6-10.7-10.7-19.6-23.5-19.6C696.8 256.8 687.7 264.9 685.3 276.3z"/>
			<path d="M838.9 231.6c23 0 39.6 14.7 39.6 39.6V341h-30.3v-62.2c0-13.5-8.6-19.1-18.2-19.1 -8.8 0-16.8 4.9-22.6 12.1V341h-30.3V234.4h29.6v4.2c0 3.7-0.5 8.4-0.5 8.4C814.4 237 826.5 231.6 838.9 231.6z"/>
		</g>
	</symbol>
	<symbol id="logo__icon--color" x="0" y="0" viewBox="0 0 321.8 485" preserveAspectRatio="xMidYMid meet">
		<title>Sea of Green icon, full color</title>
		<desc>Sea of Green's icon in three colors.</desc>
  	<path id="logo__icon--color__sea" fill="#0091b2" d="M4 324c-2.2 0-4.1 1.8-4 4.1C2.2 415.1 73.4 485 160.9 485s158.7-69.8 160.9-156.8c0.1-2.2-1.8-4.1-4-4.1H4z"/>
  	<path id="logo__icon--color__earth" fill="#77bc1f" d="M321.8 123.3v157.1c0 2.2-1.8 3.9-3.9 3.9H3.9c-2.2 0-3.9-1.8-3.9-3.9V123.3c0-3.6 4.4-5.3 6.8-2.7L158 230.6c1.6 1.6 4.2 1.6 5.7 0L315 120.5C317.5 117.9 321.8 119.7 321.8 123.3z"/>
  	<circle id="logo__icon--color__sun" fill="#ffdb00" cx="161.1" cy="80.2" r="80.2"/>
	</symbol>
	<symbol id="logo__icon" x="0" y="0" viewBox="0 0 321.8 485" preserveAspectRatio="xMidYMid meet">
		<title>Sea of Green icon, one color</title>
		<desc>Sea of Green's icon in one color. No fill is applied by default.</desc>
  	<path d="M4 324c-2.2 0-4.1 1.8-4 4.1C2.2 415.1 73.4 485 160.9 485s158.7-69.8 160.9-156.8c0.1-2.2-1.8-4.1-4-4.1H4z"/>
  	<path d="M321.8 123.3v157.1c0 2.2-1.8 3.9-3.9 3.9H3.9c-2.2 0-3.9-1.8-3.9-3.9V123.3c0-3.6 4.4-5.3 6.8-2.7L158 230.6c1.6 1.6 4.2 1.6 5.7 0L315 120.5C317.5 117.9 321.8 119.7 321.8 123.3z"/>
  	<circle cx="161.1" cy="80.2" r="80.2"/>
	</symbol>
	<symbol id="logo__type" fill="#0091b2" x="0" y="0" viewBox="0 0 1631.9 285" preserveAspectRatio="xMidYMid meet">
		<title> Sea of Green logotype</title>
		<desc>Sea of Green's logotype, without icon. Default fill is black.</desc>
		<path d="M99 126.1c-11.9-11.6-26.8-15.2-36.4-15.2 -11 0-14.8 5.5-14.8 10 0 5.2 3.2 8.7 11 11.3l24.5 7.7c30.3 10 40.6 26.4 40.6 45.8 0 21.6-18.4 46.8-58.7 46.8 -32.6 0-52.9-12.6-65.1-23.2l22.2-29c10.6 10 29.7 18.4 43.5 18.4 10 0 16.1-5.2 16.1-11 0-7.4-4.8-10.6-16.8-14.2L40 166.1c-23.9-7.7-34.2-23.9-34.2-43.2 0-24.2 21.9-45.8 57.4-45.8 19.3 0 42.2 5.8 59.7 21.9L99 126.1z"/>
		<path d="M287.3 167h-110c2.3 16.4 15.2 29.7 33.9 29.7 12.3 0 23.9-5.2 29.7-15.2l43.5 4.5c-13.2 31.6-40.9 46.4-73.8 46.4 -44.2 0-77.4-32.6-77.4-77.7s32.6-77.7 76.7-77.7c40.6 0 77.4 26.4 77.4 88.3V167zM176.4 139h66.1c-2.3-14.8-14.8-27.1-32.6-27.1C192.2 111.9 179.6 123.2 176.4 139z"/>
		<path d="M392.2 130.3c0-10.6-8.4-17.4-24.5-17.4 -14.8 0-33.5 7.4-44.5 13.9l-16.4-31.6c0 0 27.4-18.1 63.2-18.1 33.5 0 64.2 15.5 64.2 54.5v97.1h-41.9v-13.9c-7.7 11.6-24.5 17.7-41.3 17.7 -31.3 0-51.6-22.2-51.6-46.4 0-28.1 20.6-45.5 53.5-45.5h29c7.1 0 10.3-3.2 10.3-8.7V130.3zM392.2 175.7v-10.6c-2.6 2.6-7.1 3.2-12.9 3.2h-15.8c-13.2 0-21 5.8-21 16.1 0 10 8.1 17.4 21 17.4C378.7 201.8 392.2 194.1 392.2 175.7z"/>
		<path d="M526.3 154.8c0-45.1 35.1-77.7 79-77.7 43.9 0 79 32.6 79 77.7s-35.1 77.7-79 77.7C561.5 232.5 526.3 199.9 526.3 154.8zM568.3 154.8c0 22.9 15.2 40.3 37.1 40.3 21.6 0 36.8-17.4 36.8-40.3 0-23.2-15.2-40.3-36.8-40.3C583.4 114.5 568.3 131.6 568.3 154.8z"/>
		<path d="M712.6 39c0-29 19.3-39 41.9-39 11.3 0 30.6 1.9 30.6 1.9v38.4c0 0-12.9-1.6-17.4-1.6 -8.1 0-13.2 1.9-13.2 12.3v30h28.4v35.5h-28.4v112.2h-41.9V116.4h-23.2V80.9h23.2V39z"/>
		<path d="M1036 80.9v158.6c0 23.2-11.6 45.5-47.4 45.5h-64.2v-35.5h53.8c7.4 0 15.8-1.9 15.8-13.2V208c-7.1 11.9-24.8 22.2-45.8 22.2 -40 0-70.9-30.3-70.9-76.4 0-46.4 30.6-76.7 70.6-76.7 22.2 0 39.3 10.3 46.8 22.9 0-1.6-0.6-4.5-0.6-12.3v-6.8H1036zM957.7 194.1c22.2 0 37.4-16.4 37.4-40.3 0-24.2-15.2-40.6-37.4-40.6 -21.9 0-37.1 16.4-37.1 40.6C920.6 177.7 935.7 194.1 957.7 194.1z"/>
		<path d="M1148.3 122.2h-17.7c-21.3 0-31 10-31 35.8v70.6h-41.9V80.9h40.6v23.5c5.8-15.8 20-25.5 38.4-25.5 3.9 0 7.7 0.3 11.6 1.3V122.2z"/>
		<path d="M1309 167h-110c2.3 16.4 15.2 29.7 33.9 29.7 12.3 0 23.9-5.2 29.7-15.2l43.5 4.5c-13.2 31.6-40.9 46.4-73.8 46.4 -44.2 0-77.4-32.6-77.4-77.7s32.6-77.7 76.7-77.7c40.6 0 77.4 26.4 77.4 88.3V167zM1198.1 139h66.1c-2.3-14.8-14.8-27.1-32.6-27.1C1213.9 111.9 1201.3 123.2 1198.1 139z"/>
		<path d="M1475.4 167h-109.9c2.3 16.4 15.2 29.7 33.9 29.7 12.3 0 23.9-5.2 29.7-15.2l43.5 4.5c-13.2 31.6-40.9 46.4-73.8 46.4 -44.2 0-77.4-32.6-77.4-77.7s32.6-77.7 76.7-77.7c40.6 0 77.4 26.4 77.4 88.3V167zM1364.5 139h66.1c-2.3-14.8-14.8-27.1-32.6-27.1C1380.3 111.9 1367.7 123.2 1364.5 139z"/>
		<path d="M1577.1 77.1c31.9 0 54.8 20.3 54.8 54.8v96.7H1590v-86.1c0-18.7-11.9-26.4-25.2-26.4 -12.3 0-23.2 6.8-31.3 16.8v95.8h-41.9V80.9h40.9v5.8c0 5.2-0.6 11.6-0.6 11.6C1543.2 84.5 1560 77.1 1577.1 77.1z"/>
	</symbol>
</svg>