<svg xmlns="http://www.w3.org/2000/svg" version="1.1" x="0" y="0" viewBox="0 0 900.3 381.8" preserveAspectRatio="xMidYMid meet">
	<g id="icon">
		<path id="sea" fill="#0091b2" d="M2.9 239.7c-1.6 0-3 1.3-2.9 3 1.6 63.2 53.3 113.9 116.8 113.9S232 305.8 233.6 242.7c0-1.6-1.3-3-2.9-3H2.9z"/>
		<path id="earth" fill="#77bc1f" d="M233.7 93.9v114c0 1.6-1.3 2.9-2.9 2.9H2.9c-1.6 0-2.9-1.3-2.9-2.9v-114c0-2.6 3.2-3.9 4.9-2l109.8 79.9c1.1 1.2 3 1.2 4.2 0l109.9-79.9C230.5 90 233.7 91.3 233.7 93.9z"/>
		<circle id="sun" fill="#ffdb00" cx="117" cy="62.6" r="58.2"/>
	</g>
	<g id="type" fill="#0091b2">
		<path d="M404.9 91c-8.6-8.4-19.3-10.9-26.3-10.9 -7.9 0-10.7 4-10.7 7.2 0 3.7 2.3 6.3 7.9 8.1l17.7 5.6c21.9 7.2 29.3 19.1 29.3 33.1 0 15.6-13.3 33.8-42.4 33.8 -23.5 0-38.2-9.1-47-16.8l16.1-21c7.7 7.2 21.4 13.3 31.4 13.3 7.2 0 11.6-3.7 11.6-7.9 0-5.4-3.5-7.7-12.1-10.2l-18.2-5.4c-17.2-5.6-24.7-17.2-24.7-31.2 0-17.5 15.8-33.1 41.4-33.1 14 0 30.5 4.2 43.1 15.8L404.9 91z"/>
		<path d="M540.9 120.6h-79.4c1.6 11.9 10.9 21.4 24.4 21.4 8.8 0 17.2-3.7 21.4-10.9l31.4 3.3c-9.5 22.8-29.6 33.5-53.3 33.5 -31.9 0-55.9-23.5-55.9-56.1s23.5-56.1 55.4-56.1c29.3 0 55.9 19.1 55.9 63.8V120.6zM460.8 100.3h47.7c-1.6-10.7-10.7-19.6-23.5-19.6C472.2 80.8 463.2 88.9 460.8 100.3z"/>
		<path d="M616.6 94c0-7.7-6.1-12.6-17.7-12.6 -10.7 0-24.2 5.4-32.1 10l-11.9-22.8c0 0 19.8-13 45.6-13 24.2 0 46.3 11.2 46.3 39.3V165h-30.3v-10c-5.6 8.4-17.7 12.8-29.8 12.8 -22.6 0-37.2-16.1-37.2-33.5 0-20.3 14.9-32.8 38.6-32.8h21c5.1 0 7.4-2.3 7.4-6.3V94zM616.6 126.9v-7.7c-1.9 1.9-5.1 2.3-9.3 2.3h-11.4c-9.5 0-15.1 4.2-15.1 11.6 0 7.2 5.8 12.6 15.1 12.6C606.8 145.7 616.6 140.1 616.6 126.9z"/>
		<path d="M713.5 111.7c0-32.6 25.4-56.1 57-56.1 31.7 0 57 23.5 57 56.1s-25.4 56.1-57 56.1C738.8 167.8 713.5 144.3 713.5 111.7zM743.7 111.7c0 16.5 10.9 29.1 26.8 29.1 15.6 0 26.5-12.6 26.5-29.1 0-16.8-10.9-29.1-26.5-29.1C754.7 82.6 743.7 95 743.7 111.7z"/>
		<path d="M847.9 28.2c0-21 14-28.2 30.3-28.2 8.1 0 22.1 1.4 22.1 1.4v27.7c0 0-9.3-1.2-12.6-1.2 -5.8 0-9.5 1.4-9.5 8.8v21.7h20.5V84h-20.5v81h-30.3V84h-16.8V58.4h16.8V28.2z"/>
		<path d="M448.2 234.4V349c0 16.8-8.4 32.8-34.2 32.8h-46.3v-25.6h38.9c5.4 0 11.4-1.4 11.4-9.5v-20.5c-5.1 8.6-17.9 16.1-33.1 16.1 -28.9 0-51.2-21.9-51.2-55.2 0-33.5 22.1-55.4 51-55.4 16.1 0 28.4 7.4 33.8 16.5 0-1.2-0.5-3.3-0.5-8.8v-4.9H448.2zM391.6 316.1c16.1 0 27-11.9 27-29.1 0-17.5-10.9-29.3-27-29.3 -15.8 0-26.8 11.9-26.8 29.3C364.9 304.3 375.8 316.1 391.6 316.1z"/>
		<path d="M529.3 264.2h-12.8c-15.4 0-22.3 7.2-22.3 25.8v51h-30.3V234.4h29.3v17c4.2-11.4 14.4-18.4 27.7-18.4 2.8 0 5.6 0.2 8.4 0.9V264.2z"/>
		<path d="M645.3 296.6h-79.4c1.6 11.9 10.9 21.4 24.4 21.4 8.8 0 17.2-3.7 21.4-10.9l31.4 3.3c-9.5 22.8-29.6 33.5-53.3 33.5 -31.9 0-55.9-23.5-55.9-56.1s23.5-56.1 55.4-56.1c29.3 0 55.9 19.1 55.9 63.8V296.6zM565.2 276.3H613c-1.6-10.7-10.7-19.6-23.5-19.6C576.6 256.8 567.6 264.9 565.2 276.3z"/>
		<path d="M765.4 296.6H686c1.6 11.9 10.9 21.4 24.4 21.4 8.8 0 17.2-3.7 21.4-10.9l31.4 3.3c-9.5 22.8-29.6 33.5-53.3 33.5 -31.9 0-55.9-23.5-55.9-56.1s23.5-56.1 55.4-56.1c29.3 0 55.9 19.1 55.9 63.8V296.6zM685.3 276.3h47.7c-1.6-10.7-10.7-19.6-23.5-19.6C696.8 256.8 687.7 264.9 685.3 276.3z"/>
		<path d="M838.9 231.6c23 0 39.6 14.7 39.6 39.6V341h-30.3v-62.2c0-13.5-8.6-19.1-18.2-19.1 -8.8 0-16.8 4.9-22.6 12.1V341h-30.3V234.4h29.6v4.2c0 3.7-0.5 8.4-0.5 8.4C814.4 237 826.5 231.6 838.9 231.6z"/>
	</g>
</svg>