<svg xmlns="http://www.w3.org/2000/svg" version="1.1" x="0" y="0" viewBox="0 0 429.1 153.9" preserveAspectRatio="xMidYMid meet">
  <rect x="0" y="0" id="background" fill="#0091B2" width="429.1" height="144.7"/>
  <g id="type" fill="#FFDB00">
    <path d="M114.2 84.1l-11.7 28.4L92 84.1H75.2l19.1 48.1c-3.7 10.2-6.3 11.2-14.3 7.7l-3.9 11.5c12.7 4.9 24 3.8 31.5-14.8l22.2-52.6H114.2z"/>
    <path d="M94.3 47.5c-12.7 0-17.9 8.4-17.9 16.5 0 8.6 6.6 16.8 18 16.8 6.3 0 11.3-2.8 14-6.2 0.2 1.7 0.7 3.4 1.3 4.4H123V46.5c0-9.1-4.5-16.5-19.2-16.5 -10.5 0-19.3 3-23.9 5.3l5.1 10.1c5.4-3 10.9-3.9 14.9-3.9 4.3 0 8 0.6 8 7.7v1C104 48.5 99 47.5 94.3 47.5zM108 65.7c-3 2.8-8 3.4-10.2 3.4 -3.1 0-6.1-1.3-6.1-6 0-4.4 3.4-6.2 6-6.2 4.2 0 8.3 1.3 10.3 2.4V65.7z"/>
    <path d="M146 48.9c9-7.2 18-7.8 18 3.2v18.9h16V47.4c0-10-5.5-17.5-16.5-17.5 -6.6 0-13.5 3.3-17.4 7.6 -0.3-3.1-0.8-5.5-1.3-6.5H131v48h15V48.9z"/>
    <polygon points="55 74.1 55 79.2 55 91.1 28 91.1 28 79.2 28 74.1 12 74.1 12 79.2 12 132.1 28 132.1 28 105.1 55 105.1 55 132.1 71 132.1 71 79.2 71 74.1 "/>
    <polygon points="28 71.1 28 52.1 55 52.1 55 71.1 71 71.1 71 12.1 55 12.1 55 38.1 28 38.1 28 12.1 12 12.1 12 71.1 "/>
    <path d="M164 74.1v5.1 11.3c-4-4.9-9.3-7.3-15.2-7.3 -14.1 0-20.9 10.8-20.9 25.3 0 14.6 7 25.4 21.1 25.4 5.9 0 11-2.5 15.4-7.2 0.1 2 0.5 3.2 1.2 5.2H180V79.2v-5.1H164zM164 113.9c-2 4.2-6.6 6.2-10.9 6.2 -5.6 0-8.9-4.1-8.9-11.5s3.3-11.5 8.9-11.5c4.2 0 8.9 2 10.9 6.2V113.9z"/>
    <rect x="284" y="49.1" width="24" height="13"/>
    <path d="M338.5 30.2c-13.8 0-24.5 8.9-24.5 25.3 0 15 9 25.4 24.5 25.4 15.4 0 24.4-10.5 24.4-25.4C362.9 40.5 353.9 30.2 338.5 30.2zM338.5 68.1c-6.3 0-9.1-5.6-9.1-12.6 0-7 2.8-12.4 9.1-12.4 6.2 0 9 5.4 9 12.4C347.6 62.5 344.8 68.1 338.5 68.1z"/>
    <path d="M400.7 30c-6.6 0-13.4 3.3-17.3 7.6 -0.3-3.1-0.7-5.5-1.2-6.5H368v48h16V48.9c8-7.2 18-7.8 18 3.2v26.9h15V47.4C417 37.5 411.7 30 400.7 30z"/>
    <path d="M201.2 89.4c-0.3-2.7-0.7-4.3-1.1-5.3H186v48h16v-31.8c4-4.7 9.7-5.2 13.9-2.2l4-12.5C213.2 81 206.6 84.2 201.2 89.4z"/>
    <path d="M205.4 80.9c5.9 0 11-2.4 15.4-7.1 0.1 2 0.5 3.3 1.2 5.3h14v-69h-15v27.4c-5-4.9-9.6-7.3-15.5-7.3 -14.1 0-21.1 10.8-21.1 25.3C184.5 70.1 191.3 80.9 205.4 80.9zM209.9 44c4.2 0 8.2 2 11.2 6.2v10.6c-3 4.2-7 6.2-11.2 6.2 -5.6 0-9-4.1-9-11.5S204.3 44 209.9 44z"/>
    <path d="M244.3 83.2c-13.8 0-24.5 8.9-24.5 25.3 0 15 9 25.4 24.5 25.4 15.4 0 24.4-10.5 24.4-25.4C268.7 93.6 259.7 83.2 244.3 83.2zM244.3 121.1c-6.3 0-9.1-5.6-9.1-12.6 0-7 2.8-12.4 9.1-12.4 6.2 0 9 5.4 9 12.4C253.3 115.6 250.5 121.1 244.3 121.1z"/>
    <path d="M262 47.6c-1.1-0.3-5.3-1.2-5.3-4 0-1.6 1.1-2.4 4-2.4 2.8 0 8 1.3 11.9 3.7l4.2-10.4c-4.5-2.7-12.1-4.5-18-4.5 -9.5 0-17.9 4.9-17.9 14.5 0 8 5.5 11.5 13.2 13.6 3.6 1 9.3 1.9 9.3 6.1 0 3.4-3.7 3.9-6.2 3.9 -3.9 0-8-2.1-10.7-4.7l-6.2 9.8c3 3.4 10.1 7.2 19.4 7.2 9.1 0 19.6-5.2 19.6-16.2C279.5 54.8 273 50.6 262 47.6z"/>
  </g>
</svg>
