<svg xmlns="http://www.w3.org/2000/svg" version="1.1" x="0" y="0" viewBox="0 0 405 143.8"  preserveAspectRatio="xMidYMid meet">
  <g id="hands-on" fill="#FFDB00">
    <path d="M82.2 37.5c-12.7 0-17.9 8.4-17.9 16.5 0 8.6 6.6 16.8 18 16.8 6.3 0 11.3-2.8 14-6.2 0.2 1.7 0.7 3.4 1.3 4.4H111V36.4c0-9.1-4.5-16.5-19.2-16.5 -10.5 0-19.3 3-23.9 5.3L73 35.2c5.4-3 10.9-3.9 14.9-3.9 4.3 0 8 0.6 8 7.7v1C92 38.4 86.9 37.5 82.2 37.5zM96 55.6c-3 2.8-8 3.4-10.2 3.4 -3.1 0-6.1-1.3-6.1-6 0-4.4 3.4-6.2 6-6.2 4.2 0 8.3 1.3 10.3 2.4V55.6z"/>
    <path d="M134 38.9c9-7.2 18-7.8 18 3.2V61h16V37.4c0-10-5.5-17.5-16.5-17.5 -6.6 0-13.5 3.3-17.4 7.6 -0.3-3.1-0.8-5.5-1.3-6.5H119v48h15V38.9z"/>
    <polygon points="16 61 16 42 43 42 43 61 59 61 59 2 43 2 43 28 16 28 16 2 0 2 0 61 "/>
    <rect x="272" y="39" width="24" height="13"/>
    <path d="M326.5 20.1c-13.8 0-24.5 8.9-24.5 25.3 0 15 9 25.4 24.5 25.4 15.4 0 24.4-10.5 24.4-25.4C350.9 30.4 341.9 20.1 326.5 20.1zM326.5 58c-6.3 0-9.1-5.6-9.1-12.6 0-7 2.8-12.4 9.1-12.4 6.2 0 9 5.4 9 12.4C335.5 52.4 332.7 58 326.5 58z"/>
    <path d="M388.6 19.9c-6.6 0-13.4 3.3-17.3 7.6 -0.3-3.1-0.7-5.5-1.2-6.5H356v48h16V38.9c8-7.2 18-7.8 18 3.2V69h15V37.4C405 27.4 399.7 19.9 388.6 19.9z"/>
    <path d="M193.4 70.9c5.9 0 11-2.4 15.4-7.1 0.1 2 0.5 3.3 1.2 5.3h14V0h-15v27.4c-5-4.9-9.6-7.3-15.5-7.3 -14.1 0-21.1 10.8-21.1 25.3C172.4 60 179.3 70.9 193.4 70.9zM197.8 33.9c4.2 0 8.2 2 11.2 6.2v10.6c-3 4.2-7 6.2-11.2 6.2 -5.6 0-9-4.1-9-11.5S192.3 33.9 197.8 33.9z"/>
    <path d="M249.9 37.5c-1.1-0.3-5.3-1.2-5.3-4 0-1.6 1.1-2.4 4-2.4 2.8 0 8 1.3 11.9 3.7l4.2-10.4c-4.5-2.7-12.1-4.5-18-4.5 -9.5 0-17.9 4.9-17.9 14.5 0 8 5.5 11.5 13.2 13.6 3.6 1 9.3 1.9 9.3 6.1 0 3.4-3.7 3.9-6.2 3.9 -3.9 0-8-2.1-10.7-4.7l-6.2 9.8c3 3.4 10.1 7.2 19.4 7.2 9.1 0 19.6-5.2 19.6-16.2C267.4 44.7 261 40.5 249.9 37.5z"/>
  </g>
  <g id="hydro" fill="#0091B3">
    <path d="M102.1 74l-11.7 28.4L80 74H63.2l19.1 48.1c-3.7 10.2-6.3 11.2-14.3 7.7L64 141.4c12.7 4.9 24 3.8 31.5-14.8L117.7 74H102.1z"/>
    <polygon points="43 64 43 69.1 43 81 16 81 16 69.1 16 64 0 64 0 69.1 0 122 16 122 16 95 43 95 43 122 59 122 59 69.1 59 64 "/>
    <path d="M152 64v5.1 11.3c-4-4.9-9.3-7.3-15.2-7.3 -14.1 0-20.9 10.8-20.9 25.3 0 14.6 7 25.4 21.1 25.4 5.9 0 11-2.5 15.4-7.2 0.1 2 0.5 3.2 1.2 5.2H168V69.1 64H152zM152 103.8c-2 4.2-6.6 6.2-10.9 6.2 -5.6 0-8.9-4.1-8.9-11.5s3.3-11.5 8.9-11.5c4.2 0 8.9 2 10.9 6.2V103.8z"/>
    <path d="M189.2 79.3c-0.3-2.7-0.7-4.3-1.1-5.3H174v48h16V90.2c4-4.7 9.7-5.2 13.9-2.2l4-12.5C201.2 70.9 194.5 74.1 189.2 79.3z"/>
    <path d="M232.3 73.1c-13.8 0-24.5 8.9-24.5 25.3 0 15 9 25.4 24.5 25.4 15.4 0 24.4-10.5 24.4-25.4C256.6 83.5 247.6 73.1 232.3 73.1zM232.3 111.1c-6.3 0-9.1-5.6-9.1-12.6 0-7 2.8-12.4 9.1-12.4 6.2 0 9 5.4 9 12.4C241.3 105.5 238.5 111.1 232.3 111.1z"/>
  </g>
</svg>
